<?xml version="1.0" encoding="UTF-8"?>
<!DOCTYPE svg PUBLIC "-//W3C//DTD SVG 1.1//EN" "http://www.w3.org/Graphics/SVG/1.1/DTD/svg11.dtd">
<svg version="1.1" id="Layer_1" xmlns="http://www.w3.org/2000/svg" x="0" y="0" viewBox="0 0 256 256" style="enable-background:new 0 0 256 256" xml:space="preserve"><style>.st0{fill:#4671c6}.st1{fill:#f9cfcf}.st2{fill:#f9a7a7}.st4{fill:#3762cc}.st5{fill:#e0ebfc}.st6{fill:#6bdddd}</style><path class="st5" d="M165.777 171.656c-10.001 0-9.667-.004-9.667-.004l-.003.004H92.924c-16.692 0-30.223 13.531-30.223 30.223v27.439h133.298v-27.439c0-16.692-13.531-30.223-30.222-30.223z"/><path style="fill:#a4c9ff" d="M129.358 171.656h-.015v.011z"/><path class="st0" d="m161.52 171.66-24.545 39.243c-3.526 5.637-11.737 5.637-15.262-.002L97.18 171.66c-4.962 0-12.894-.606-21.543 5.437 4.384 28.732 3.568 16.815 3.568 52.22H182.62c0-35.395-.738-23.997 3.233-50.019-9.303-8.275-18.949-7.636-24.333-7.638z"/><path class="st2" d="M135.67 198.734h-12.639l-3.219 9.125 1.901 3.041c3.525 5.638 11.736 5.639 15.262.002l1.91-3.053-3.215-9.115zM129.35 174.335l-9.964 17.11 3.644 7.289h12.653l3.638-7.275-9.971-17.124z"/><path class="st5" d="m99.014 165.839-1.837 5.816 17.422 27.867 14.751-25.187-26.431-10.362a2.963 2.963 0 0 0-3.905 1.866z"/><path class="st5" d="m159.679 165.839 1.837 5.816-17.422 27.867-14.751-25.187 26.431-10.362a2.963 2.963 0 0 1 3.905 1.866z"/><path class="st4" d="M114.6 201.522a2 2 0 0 1-1.696-.94l-17.422-27.867a2 2 0 0 1-.211-1.663l1.837-5.815a4.973 4.973 0 0 1 2.592-2.983 4.974 4.974 0 0 1 3.95-.142l26.431 10.361a2 2 0 0 1 .996 2.873l-14.751 25.187a2 2 0 0 1-1.696.989h-.03zm-15.237-30.144 15.181 24.282 11.898-20.316-24.253-9.508a.954.954 0 0 0-.766.028.95.95 0 0 0-.502.577v.001l-1.558 4.936zm-.348-5.539h.01-.01z"/><path class="st4" d="M144.094 201.522h-.029a1.998 1.998 0 0 1-1.696-.989l-14.751-25.187a2 2 0 0 1 .996-2.873l26.431-10.361a4.973 4.973 0 0 1 3.949.142 4.981 4.981 0 0 1 2.593 2.983l1.837 5.816a2 2 0 0 1-.211 1.663l-17.422 27.867a2.004 2.004 0 0 1-1.697.939zm-11.843-26.178 11.898 20.316 15.181-24.282-1.559-4.936a.96.96 0 0 0-1.268-.606l-24.252 9.508z"/><path class="st5" d="M155.936 201.005c-1.231 0-.904.6-.904 10.928 0 6.374-.308 7.183 1.048 7.811 8.82 4.085 5.979 4.11 14.852 0 1.387-.642 1.048-.357 1.048-17.835 0-1.245-.113-.904-16.044-.904z"/><path class="st6" d="M170.932 219.745c1.414-.655 1.048-.447 1.048-17.835 0-1.208-.847-.904-8.474-.904v21.853c1-.001 1.012-.143 7.426-3.114z"/><path class="st4" d="M195.999 231.317H62.701a2 2 0 0 1-2-2v-27.439c0-17.768 14.455-32.223 32.223-32.223h4.254a2 2 0 0 1 1.696.94l24.535 39.246a6.961 6.961 0 0 0 5.936 3.289 6.963 6.963 0 0 0 5.935-3.288l24.548-39.248a2 2 0 0 1 1.695-.939h4.254c17.768 0 32.223 14.455 32.223 32.223v27.439a2 2 0 0 1-2.001 2zm-131.298-4h129.298v-25.439c0-15.562-12.66-28.223-28.223-28.223h-3.146l-23.961 38.308a10.936 10.936 0 0 1-9.325 5.167 10.94 10.94 0 0 1-9.327-5.168l-23.948-38.307h-3.146c-15.563 0-28.223 12.661-28.223 28.223v25.439z"/><path class="st1" d="m102.919 163.974 26.427 10.36c.454-.178 26.403-10.38 26.88-10.485v-4.793a58.035 58.035 0 0 1-26.869 6.554 58.027 58.027 0 0 1-26.898-6.569v4.807c.154.033.309.066.46.126z"/><path class="st4" d="M129.347 176.334a1.99 1.99 0 0 1-.729-.138L102.2 165.84c-.054-.017-.109-.026-.163-.038a1.999 1.999 0 0 1-1.577-1.955v-4.808a1.999 1.999 0 0 1 2.925-1.773c7.96 4.149 16.941 6.343 25.973 6.343 9.021 0 17.992-2.188 25.945-6.328a2.002 2.002 0 0 1 2.924 1.774v4.793a2 2 0 0 1-1.435 1.918c-.887.305-10.992 4.25-26.458 10.327l-.257.101c-.234.094-.482.14-.73.14zM104.46 162.43l24.886 9.756c16.356-6.427 22.508-8.819 24.881-9.723v-.212a60.525 60.525 0 0 1-24.869 5.359 60.51 60.51 0 0 1-24.897-5.373v.193zm-2.255 3.412h.011-.011zm-.014-.005"/><path class="st1" d="M187.272 86.402c-9.866-7.103-19.219-12.127-22.65-26.267-8.36 7.04-20.255 11.51-31.5 13.936l.001.001c-1.18.225-8.802 2-17.738 2.067l.005-.011c-13.895.565-30.067-1.917-42.36-8.466l-.002-.001c-1.806 7.527-1.585 12.46-1.585 18.741-10.081-.203-18.035 7.832-18.035 17.491 0 10.341 9.027 18.52 19.565 17.406 5.976 25.391 28.943 44.31 56.385 44.31 27.442 0 50.409-18.92 56.385-44.31a17.98 17.98 0 0 0 1.896.104c9.758 0 17.669-7.839 17.669-17.51-.001-9.864-8.214-17.733-18.036-17.491z"/><path class="st4" d="M129.369 140.554c-.001 0 0 0 0 0-3.977 0-7.675-1.429-10.146-3.92-1.864-1.88-2.892-4.248-2.892-6.667a2 2 0 0 1 4 0c0 1.376.599 2.708 1.731 3.85 1.726 1.74 4.389 2.738 7.306 2.738 2.894 0 5.544-.998 7.27-2.738 1.133-1.142 1.731-2.473 1.731-3.85a2 2 0 0 1 4 0c0 2.419-1.027 4.787-2.892 6.667-2.471 2.491-6.156 3.92-10.108 3.92zM100.708 119.911c-3.855 0-6.992-3.136-6.992-6.991v-11.652a6.999 6.999 0 0 1 6.992-6.991c3.854 0 6.991 3.136 6.991 6.991v11.652a6.999 6.999 0 0 1-6.991 6.991zM157.993 119.911c-3.855 0-6.992-3.136-6.992-6.991v-11.652a6.999 6.999 0 0 1 6.992-6.991c3.854 0 6.991 3.136 6.991 6.991v11.652a6.999 6.999 0 0 1-6.991 6.991z"/><path class="st0" d="M186.184 37.566c-4.448-5.798-10.814-3.094-13.035-2.421 2.098 6.171 1.373 13.719-3.323 19.556-1.445 1.939-3.21 3.744-5.207 5.426 3.38 13.945 12.482 18.952 22.652 26.275a17.509 17.509 0 0 1 8.815 2.11c1.31-9.605 5.979-30.244-9.902-50.946z"/><path class="st4" d="M196.087 90.512c-.327 0-.654-.08-.951-.24a15.418 15.418 0 0 0-7.815-1.871 1.942 1.942 0 0 1-1.217-.376 359.377 359.377 0 0 0-3.221-2.284c-8.749-6.154-17.013-11.967-20.206-25.143a2 2 0 0 1 .654-2.001c1.955-1.646 3.601-3.359 4.892-5.091 3.944-4.905 5.089-11.671 3.033-17.717a2.002 2.002 0 0 1 1.313-2.558c.163-.049.351-.111.56-.179 2.649-.867 9.686-3.167 14.643 3.296 15.182 19.79 12.229 39.484 10.643 50.064-.128.851-.246 1.642-.346 2.37a2 2 0 0 1-1.982 1.73zm-8.178-6.115c2.28.021 4.483.424 6.582 1.201 1.505-10.044 4.15-28.508-9.894-46.815-2.624-3.42-5.924-3.174-8.982-2.311 1.645 6.8.097 14.104-4.23 19.483-1.216 1.632-2.741 3.279-4.518 4.869 3.011 10.878 9.799 15.653 18.316 21.645.898.631 1.807 1.271 2.726 1.928z"/><path class="st4" d="M129.357 167.609c-27.421 0-51-18.094-57.922-44.214a19.743 19.743 0 0 1-13.571-5.049 19.48 19.48 0 0 1-6.456-14.453c0-5.257 2.078-10.188 5.852-13.886a19.522 19.522 0 0 1 12.178-5.544c-.02-5.517-.026-10.303 1.645-17.27a2 2 0 0 1 2.84-1.322c10.877 5.794 26.33 8.875 41.387 8.258.091-.003.181-.001.271.007 7.787-.082 14.427-1.462 16.622-1.918l.547-.112c12.602-2.72 23.48-7.518 30.586-13.501a2.002 2.002 0 0 1 3.231 1.058c2.859 11.783 10.1 16.851 18.484 22.719.944.661 1.898 1.329 2.859 2.015 5.082.047 9.861 2.018 13.522 5.59 3.789 3.696 5.875 8.635 5.875 13.906 0 10.758-8.823 19.51-19.668 19.51l-.36-.003c-6.924 26.117-30.501 44.209-57.922 44.209zm-56.382-48.31a2 2 0 0 1 1.945 1.542c5.927 25.181 28.313 42.769 54.438 42.769 26.126 0 48.512-17.587 54.438-42.769a1.992 1.992 0 0 1 2.157-1.531c.592.063 1.144.093 1.687.093 8.64 0 15.668-6.958 15.668-15.51 0-4.184-1.658-8.105-4.668-11.043-3.049-2.974-7.051-4.559-11.317-4.449a2.07 2.07 0 0 1-1.218-.376 287.237 287.237 0 0 0-3.348-2.365c-8-5.599-15.591-10.912-19.243-22.106-9.43 6.958-21.327 10.608-29.969 12.473l-.522.107c-6.197 1.29-12.126 1.964-17.621 2.005-.044.004-.095-.001-.142-.004-14.623.559-29.64-2.23-40.825-7.531-1.026 5.278-1.012 9.34-.995 13.947l.004 1.851c0 .538-.216 1.052-.601 1.428-.385.376-.9.589-1.439.571-4.293-.062-8.319 1.499-11.343 4.462-3 2.939-4.651 6.856-4.651 11.029 0 4.36 1.87 8.544 5.132 11.479 3.307 2.975 7.757 4.41 12.223 3.938.068-.007.139-.01.21-.01z"/><path class="st0" d="M142.112 71.687c17.895-5.656 34.194-16.636 31.934-32.559-.674-4.748-3.025-9.106-6.423-12.49-10.059-10.017-20.974-15.267-31.963-17.298l.001-.001c-33.307-5.81-59.709 8.74-69.679 20.667 0 0-36.846 34.213 21.103 57.746.765.311 1.561-.371 1.353-1.17-4.64-17.749 1.93 5.106 57.928-2.24 1.716-.225 2.352-2.383 1.033-3.504a73.396 73.396 0 0 1-6.146-5.875c-1.002-1.078-.543-2.832.859-3.276z"/><path class="st4" d="M87.474 89.829c-.384 0-.771-.074-1.142-.224-19.965-8.107-31.23-18.452-33.484-30.744-2.908-15.867 10.298-28.918 11.677-30.23 9.987-11.858 37.18-27.249 71.48-21.262 12.313 2.277 23.42 8.283 33.029 17.853 3.799 3.783 6.282 8.622 6.993 13.626 2.09 14.731-10.053 27.396-33.313 34.748l-.008.003a72.124 72.124 0 0 0 5.986 5.718 3.95 3.95 0 0 1 1.244 4.178 3.95 3.95 0 0 1-3.313 2.832c-31.849 4.179-48.217-1.365-55.206-3.731-.699-.237-1.448-.491-2.058-.674.215 1.111.644 2.75 1.011 4.157a2.97 2.97 0 0 1-.919 3.003 2.993 2.993 0 0 1-1.977.747zm33.153-79.805c-25.619 0-45.229 11.835-53.111 21.265a2.13 2.13 0 0 1-.173.183c-.131.122-13.177 12.48-10.557 26.69 1.935 10.488 11.758 19.556 29.211 26.973-.945-3.735-1.173-5.48.161-6.722 1.436-1.34 3.252-.722 6.543.392 6.727 2.278 22.476 7.612 53.404 3.555a73.96 73.96 0 0 1-6.318-6.034 3.99 3.99 0 0 1-.939-3.751 3.981 3.981 0 0 1 2.662-2.793c7.828-2.474 33.166-11.976 30.557-30.371-.589-4.148-2.668-8.181-5.854-11.354-9.028-8.991-19.43-14.626-30.915-16.749a85.133 85.133 0 0 0-14.671-1.284zM129.345 217.13h-.002a10.94 10.94 0 0 1-9.326-5.169l-1.901-3.041a1.998 1.998 0 0 1-.189-1.726l3.22-9.125a1.999 1.999 0 0 1 1.886-1.334h12.639a2 2 0 0 1 1.886 1.335l3.215 9.114a1.999 1.999 0 0 1-.19 1.726l-1.909 3.053a10.95 10.95 0 0 1-9.329 5.167zm-7.326-9.514 1.391 2.224a6.959 6.959 0 0 0 5.934 3.29h.002a6.962 6.962 0 0 0 5.936-3.289l1.397-2.236-2.423-6.871h-9.809l-2.428 6.882z"/><path class="st4" d="M135.685 200.734h-12.653a2 2 0 0 1-1.789-1.105l-3.645-7.289a2 2 0 0 1 .061-1.901l9.964-17.11a2 2 0 0 1 3.458 0l9.971 17.124c.339.583.362 1.297.061 1.9l-3.637 7.275a2.006 2.006 0 0 1-1.791 1.106zm-11.417-4h10.181l2.601-5.203-7.698-13.222-7.691 13.208 2.607 5.217z"/><path class="st5" d="M128 233.188v4.872H31.755v-13.25a96.922 96.922 0 0 1 57.781-4.4l34.693 8.034a4.87 4.87 0 0 1 3.771 4.744zM128 233.188v4.872h96.245v-13.25a96.922 96.922 0 0 0-57.781-4.4l-34.693 8.034a4.87 4.87 0 0 0-3.771 4.744z"/><path class="st0" d="M71.466 79.811c-5.759-3.737-9.757-7.601-12.427-11.449-.423 7.108.7 13.316 1.787 21.287a17.531 17.531 0 0 1 10.617-3.247c0-2.321-.028-4.453.023-6.591z"/><path class="st4" d="M60.826 91.649a2.002 2.002 0 0 1-1.982-1.73 624.705 624.705 0 0 0-.471-3.368c-.914-6.458-1.704-12.035-1.331-18.308a2 2 0 0 1 3.639-1.022c2.689 3.873 6.684 7.544 11.874 10.912.583.378.928 1.032.91 1.726a171.548 171.548 0 0 0-.026 4.725l.004 1.818c0 .539-.217 1.055-.603 1.431a1.92 1.92 0 0 1-1.445.569 15.585 15.585 0 0 0-9.413 2.88 2 2 0 0 1-1.156.367zm.178-17.765c.172 3.922.723 7.813 1.33 12.107l.058.406a19.443 19.443 0 0 1 7.047-1.938c-.004-1.224-.007-2.409.009-3.586-3.275-2.204-6.097-4.542-8.444-6.989z"/><path class="st6" d="M128 248.061H29.755a5 5 0 0 1 0-10H128v10zM128 248.061h98.245a5 5 0 0 0 0-10H128v10z"/><path class="st4" d="M128 240.061H31.755a2 2 0 0 1-2-2v-13.25a2 2 0 0 1 1.259-1.857c18.831-7.511 39.225-9.064 58.974-4.491l34.692 8.034a6.839 6.839 0 0 1 5.32 6.693v4.872a2 2 0 0 1-2 1.999zm-94.245-4H126v-2.872a2.857 2.857 0 0 0-2.223-2.796l-34.692-8.034c-18.513-4.287-37.613-2.964-55.33 3.818v9.884z"/><path class="st4" d="M224.245 240.061H128a2 2 0 0 1-2-2v-4.872a6.84 6.84 0 0 1 5.32-6.693l34.692-8.034c19.75-4.573 40.144-3.021 58.974 4.491a2 2 0 0 1 1.259 1.857v13.25a2 2 0 0 1-2 2.001zm-94.245-4h92.245v-9.884c-17.716-6.781-36.817-8.103-55.33-3.818l-34.692 8.034a2.857 2.857 0 0 0-2.223 2.796v2.872z"/><path class="st4" d="M128 250.061H29.755c-3.859 0-7-3.14-7-7s3.141-7 7-7H128a2 2 0 0 1 2 2v10a2 2 0 0 1-2 2zm-98.245-10c-1.654 0-3 1.346-3 3s1.346 3 3 3H126v-6H29.755z"/><path class="st4" d="M226.245 250.061H128a2 2 0 0 1-2-2v-10a2 2 0 0 1 2-2h98.245c3.859 0 7 3.14 7 7s-3.141 7-7 7zm-96.245-4h96.245c1.654 0 3-1.346 3-3s-1.346-3-3-3H130v6z"/></svg>